<svg width="25" height="24" viewBox="0 0 25 24" fill="none" xmlns="http://www.w3.org/2000/svg">
<g opacity="0.4">
<path fill-rule="evenodd" clip-rule="evenodd" d="M12.7533 8.32727C12.7533 7.91306 12.4175 7.57727 12.0033 7.57727C11.5891 7.57727 11.2533 7.91306 11.2533 8.32727V11.2405H8.33661C7.9224 11.2405 7.58661 11.5763 7.58661 11.9905C7.58661 12.4047 7.9224 12.7405 8.33661 12.7405H11.2533V15.6536C11.2533 16.0678 11.5891 16.4036 12.0033 16.4036C12.4175 16.4036 12.7533 16.0678 12.7533 15.6536V12.7405H15.6699C16.0842 12.7405 16.4199 12.4047 16.4199 11.9905C16.4199 11.5763 16.0842 11.2405 15.6699 11.2405H12.7533V8.32727Z" fill="#130F26"/>
<path fill-rule="evenodd" clip-rule="evenodd" d="M16.689 2H7.31758C4.05092 2 2.0033 4.31208 2.0033 7.58516V16.4148C2.0033 19.6879 4.04139 22 7.31758 22H16.689C19.9652 22 22.0033 19.6879 22.0033 16.4148V7.58516C22.0033 4.31208 19.9652 2 16.689 2Z" stroke="#130F26" stroke-width="1.5" stroke-linecap="round" stroke-linejoin="round"/>
</g>
</svg>
